<svg width="453" height="304" viewBox="0 0 453 304" fill="none" xmlns="http://www.w3.org/2000/svg">
<path d="M0 20C0 8.9543 8.95431 0 20 0H433C444.046 0 453 8.95431 453 20V284C453 295.046 444.046 304 433 304H20C8.95431 304 0 295.046 0 284V20Z" fill="url(#paint0_linear_2_180)"/>
<path d="M165.642 167V145.182H170.628V148.818H170.855C171.253 147.559 171.935 146.588 172.901 145.906C173.876 145.215 174.989 144.869 176.239 144.869C176.523 144.869 176.84 144.884 177.19 144.912C177.55 144.931 177.848 144.964 178.085 145.011V149.741C177.867 149.666 177.522 149.599 177.048 149.543C176.584 149.476 176.134 149.443 175.699 149.443C174.761 149.443 173.919 149.647 173.17 150.054C172.432 150.452 171.849 151.006 171.423 151.716C170.997 152.426 170.784 153.245 170.784 154.173V167H165.642ZM190.262 167.426C188.075 167.426 186.185 166.972 184.594 166.062C183.013 165.144 181.796 163.847 180.944 162.17C180.092 160.485 179.665 158.501 179.665 156.219C179.665 153.974 180.092 152.005 180.944 150.31C181.806 148.605 183.008 147.279 184.552 146.332C186.095 145.376 187.909 144.898 189.992 144.898C191.337 144.898 192.606 145.116 193.799 145.551C195.002 145.977 196.062 146.64 196.981 147.54C197.909 148.439 198.638 149.585 199.168 150.977C199.699 152.36 199.964 154.008 199.964 155.92V157.497H182.08V154.031H195.035C195.025 153.046 194.812 152.17 194.396 151.403C193.979 150.627 193.397 150.016 192.648 149.571C191.91 149.126 191.048 148.903 190.063 148.903C189.012 148.903 188.089 149.159 187.293 149.67C186.498 150.172 185.878 150.835 185.433 151.659C184.997 152.473 184.774 153.368 184.765 154.344V157.369C184.765 158.638 184.997 159.727 185.461 160.636C185.925 161.536 186.574 162.227 187.407 162.71C188.24 163.184 189.216 163.42 190.333 163.42C191.081 163.42 191.758 163.316 192.364 163.108C192.97 162.89 193.496 162.573 193.941 162.156C194.386 161.74 194.722 161.223 194.95 160.608L199.751 161.148C199.448 162.417 198.87 163.525 198.018 164.472C197.175 165.409 196.095 166.138 194.779 166.659C193.463 167.17 191.957 167.426 190.262 167.426ZM206.402 137.909L213.973 160.807H214.271L221.828 137.909H227.624L217.368 167H210.862L200.621 137.909H206.402ZM238.543 167.426C236.356 167.426 234.467 166.972 232.876 166.062C231.294 165.144 230.077 163.847 229.225 162.17C228.373 160.485 227.947 158.501 227.947 156.219C227.947 153.974 228.373 152.005 229.225 150.31C230.087 148.605 231.29 147.279 232.833 146.332C234.377 145.376 236.19 144.898 238.273 144.898C239.618 144.898 240.887 145.116 242.08 145.551C243.283 145.977 244.344 146.64 245.262 147.54C246.19 148.439 246.919 149.585 247.45 150.977C247.98 152.36 248.245 154.008 248.245 155.92V157.497H230.362V154.031H243.316C243.307 153.046 243.094 152.17 242.677 151.403C242.26 150.627 241.678 150.016 240.93 149.571C240.191 149.126 239.329 148.903 238.344 148.903C237.293 148.903 236.37 149.159 235.575 149.67C234.779 150.172 234.159 150.835 233.714 151.659C233.278 152.473 233.056 153.368 233.046 154.344V157.369C233.046 158.638 233.278 159.727 233.742 160.636C234.206 161.536 234.855 162.227 235.688 162.71C236.522 163.184 237.497 163.42 238.614 163.42C239.362 163.42 240.04 163.316 240.646 163.108C241.252 162.89 241.777 162.573 242.222 162.156C242.667 161.74 243.004 161.223 243.231 160.608L248.032 161.148C247.729 162.417 247.151 163.525 246.299 164.472C245.456 165.409 244.377 166.138 243.06 166.659C241.744 167.17 240.238 167.426 238.543 167.426ZM257.737 154.216V167H252.595V145.182H257.51V148.889H257.766C258.268 147.668 259.068 146.697 260.166 145.977C261.274 145.258 262.643 144.898 264.271 144.898C265.777 144.898 267.089 145.22 268.206 145.864C269.333 146.508 270.204 147.44 270.82 148.662C271.445 149.884 271.752 151.366 271.743 153.108V167H266.601V153.903C266.601 152.445 266.222 151.304 265.464 150.48C264.716 149.656 263.679 149.244 262.354 149.244C261.454 149.244 260.654 149.443 259.953 149.841C259.262 150.229 258.717 150.793 258.32 151.531C257.931 152.27 257.737 153.165 257.737 154.216ZM287.865 145.182V149.159H275.322V145.182H287.865ZM278.419 139.955H283.561V160.438C283.561 161.129 283.665 161.659 283.874 162.028C284.091 162.388 284.375 162.634 284.726 162.767C285.076 162.9 285.464 162.966 285.891 162.966C286.213 162.966 286.506 162.942 286.771 162.895C287.046 162.848 287.254 162.805 287.396 162.767L288.263 166.787C287.988 166.882 287.595 166.986 287.084 167.099C286.582 167.213 285.966 167.279 285.237 167.298C283.949 167.336 282.789 167.142 281.757 166.716C280.725 166.28 279.906 165.608 279.3 164.699C278.703 163.79 278.41 162.653 278.419 161.29V139.955Z" fill="#898585"/>
<defs>
<linearGradient id="paint0_linear_2_180" x1="226.5" y1="314.022" x2="226.5" y2="-1.29846e-05" gradientUnits="userSpaceOnUse">
<stop stop-color="white"/>
<stop offset="1" stop-color="#A3CCFC"/>
</linearGradient>
</defs>
</svg>
